<svg width="668" height="664" viewBox="0 0 668 664" fill="none" xmlns="http://www.w3.org/2000/svg">
<g clip-path="url(#clip0_7059_95)">
<rect width="454" height="664" fill="#1A1F05"/>
<circle cx="447.5" cy="155.5" r="157.5" fill="#1A1F05"/>
<circle cx="476.5" cy="474.5" r="191.5" fill="#1A1F05"/>
<path d="M236.796 69.2493C242.761 68.8029 249.795 69.0914 255.815 69.0953L288.933 69.1168L319.136 69.0783C327.385 69.0685 336.537 68.5908 344.538 70.289C355.58 72.5837 365.789 77.8402 374.071 85.4958C385.719 96.5968 392.476 111.873 392.854 127.959C393.322 144.084 387.385 159.739 376.34 171.497C366.465 181.793 353.211 188.186 339.005 189.506C331.986 190.168 324.641 189.62 317.596 189.88C287.917 190.974 260.671 184.048 237.888 208.084C227.209 219.321 221.535 234.404 222.16 249.893C222.608 261.946 226.792 273.561 234.132 283.131C243.481 295.328 257.369 302.681 272.519 304.768C278.102 305.537 284.402 305.331 290.087 305.3L312.182 305.187C316.934 305.171 324.413 305.007 328.987 305.682C342.658 307.805 356.523 313.318 368.691 319.658C384.101 327.688 397.408 337.954 406.239 353.109C409.292 358.348 413.049 363.849 416.299 369.123L443.18 412.064C453.443 428.517 463.386 447.198 477.629 460.194C493.052 474.267 510.201 483.359 531.613 482.504C549.503 481.659 566.316 473.714 578.33 460.431C592.971 444.383 595.733 426.518 594.853 405.741C606.683 407.996 609.167 423.281 610.64 433.285C614.319 458.277 604.451 481.677 589.186 501.059C569.255 526.249 540.097 542.445 508.179 546.054C484.357 548.867 457.308 543.937 436.563 531.191C434.229 529.757 429.156 525.284 426.811 523.331C420.735 518.194 414.584 513.146 408.36 508.188C408.732 513.949 408.555 520.037 408.826 525.921C409.328 559.759 408.594 593.761 408.85 627.616C408.941 639.662 408.93 651.89 408.73 663.939L326.688 664.01C320.51 647.586 332.677 623.629 349.436 617.605C362.274 612.99 359.228 584.782 359.263 574.359L359.32 559.637C359.347 548.364 358.547 538.881 346.751 533.354C334.82 527.764 325.401 517.857 319.668 506.014C318.095 502.765 317.013 499.512 315.284 496.329C314.342 502.413 314.016 509.948 313.548 516.201C312.885 524.553 312.147 532.898 311.335 541.237C310.841 546.376 309.703 551.149 309.067 556.216C306.506 576.627 304.736 596.382 304.199 616.884C303.868 629.475 297.242 652.561 292.243 664.128C284.462 664.004 276.084 664.226 268.223 664.239L213.249 664.31C213.233 651.155 212.857 643.426 220.05 631.756C225.103 622.005 235.384 621.652 242.587 614.64C249.544 607.869 248.427 598.579 248.417 589.85L248.397 569.591C248.39 548.213 248.788 525.457 248.289 504.183C240.758 502.804 233.378 502.532 225.827 500.535C168.921 485.48 124.806 438.014 122.262 377.902C121.775 366.407 122.043 355.09 122.05 343.745L122.072 283.931L122.076 224.409C122.069 204.715 121.064 184.37 125.445 165.156C130.199 144.431 140.068 125.226 154.15 109.294C175.227 85.4201 204.997 70.9952 236.796 69.2493Z" fill="#D3E97A"/>
<path d="M273.285 94.7011C283.94 94.7676 292.547 103.417 292.561 114.072C292.574 124.728 283.99 133.399 273.335 133.493C262.566 133.587 253.781 124.891 253.768 114.122C253.754 103.353 262.516 94.6338 273.285 94.7011Z" fill="#1A1F05"/>
<path d="M143.645 471.771C146.015 474.744 148.744 479.849 151.59 483.425C165.926 501.443 178.324 509.778 198.347 519.776C197.914 530.34 198.598 541.211 198.106 551.769C196.983 575.847 198.067 601.866 195.401 625.706C194.305 635.508 186.645 655.5 182.395 664.376C175.345 664.141 166.922 664.363 159.773 664.369L106.023 664.422C103.067 645.77 105.831 631.031 123.467 621.128C127.3 619.232 131.111 618.876 134.193 615.653C143.897 605.507 143.519 594.565 143.523 581.562L143.525 558.924C143.521 530.059 143.254 500.598 143.645 471.771Z" fill="#D3E97A"/>
</g>
<defs>
<clipPath id="clip0_7059_95">
<rect width="668" height="664" fill="white"/>
</clipPath>
</defs>
</svg>
